PathFileType	4	(X/Y/Z)	s07c0202.trc
DataRate	CameraRate	NumFrames	NumMarkers	Units	OrigDataRate	OrigDataStartFrame	OrigNumFrames
200	200	4	48	mm	200	1500	2000
Frame#	Time	racr			lacr			c7			jug			rlel			rdr			llel			ldr			s2			lic			ric			lasi			rasi			rpsi			lpsi			rgt			lgt			rth1			rth2			rth3			rth4			rlfc			rmfc			rsh1			rsh2			rsh3			rsh4			rlmal			rcal			rtoe			rmt5			lth1			lth2			lth4			lth3			llfc			lmfc			lsh1			lsh2			lsh3			lsh4			llmal			lcal			ltoe			lmt5			SBIKE			LBIKE			RBIKE			
		X1	Y1	Z1	X2	Y2	Z2	X3	Y3	Z3	X4	Y4	Z4	X5	Y5	Z5	X6	Y6	Z6	X7	Y7	Z7	X8	Y8	Z8	X9	Y9	Z9	X10	Y10	Z10	X11	Y11	Z11	X12	Y12	Z12	X13	Y13	Z13	X14	Y14	Z14	X15	Y15	Z15	X16	Y16	Z16	X17	Y17	Z17	X18	Y18	Z18	X19	Y19	Z19	X20	Y20	Z20	X21	Y21	Z21	X22	Y22	Z22	X23	Y23	Z23	X24	Y24	Z24	X25	Y25	Z25	X26	Y26	Z26	X27	Y27	Z27	X28	Y28	Z28	X29	Y29	Z29	X30	Y30	Z30	X31	Y31	Z31	X32	Y32	Z32	X33	Y33	Z33	X34	Y34	Z34	X35	Y35	Z35	X36	Y36	Z36	X37	Y37	Z37	X38	Y38	Z38	X39	Y39	Z39	X40	Y40	Z40	X41	Y41	Z41	X42	Y42	Z42	X43	Y43	Z43	X44	Y44	Z44	X45	Y45	Z45	X46	Y46	Z46	X47	Y47	Z47	X48	Y48	Z48	
1500	7.5000	502.292903	1395.507828	-122.608899	477.892929	1403.188666	-400.395578	458.895811	1453.253586	-258.049541	407.350660	1305.812806	-263.427639	502.533919	1117.929498	93.363156	685.418874	937.400699	-44.915779	481.624616	1113.137876	-584.293869	686.636405	925.723507	-479.664541	-113.567630	1200.160055	-239.948964	27.578981	1272.850192	-390.206887	68.693233	1236.734367	-104.130057	62.286409	1193.009790	-376.819563	84.616582	1191.836604	-125.715555	-82.891408	1237.668073	-188.925133	-83.443323	1255.735788	-294.619158	25.525544	1119.806082	-61.989268	-22.164266	1108.145215	-422.133252	169.041544	1059.689864	-71.541742	252.727001	1037.682529	-87.462275	317.234118	981.523769	-88.554767	266.098759	1067.274014	-106.023420	415.312249	890.192071	-127.307639	396.989513	872.621478	-230.970875	321.262482	788.227860	-95.265221	278.450954	711.139020	-103.197869	204.948644	664.832247	-92.585845	290.460443	698.766463	-140.520003	109.675075	571.408938	-81.390383	71.548639	611.601800	-116.249440	146.052369	336.967395	-129.394197	87.862148	395.733860	-58.139238	42.718149	996.418125	-431.908438	109.976178	939.269999	-436.238374	140.204199	959.989112	-432.524216	140.593489	855.976718	-429.218675	237.086230	711.002271	-399.449567	228.656614	691.763234	-307.515365	207.904306	566.756839	-422.738096	218.021733	483.695326	-402.358818	160.074228	379.816742	-382.064416	218.981510	487.025012	-359.936974	159.782081	262.827013	-402.489624	98.689222	210.524880	-368.943728	385.468065	252.506296	-365.659032	315.764706	201.757231	-420.663231	-262.999476	968.237762	-239.338064	-83.433323	78.974467	-437.917267	-83.507987	79.200798	-40.263823	
1501	7.5050	499.915986	1398.596754	-119.016540	480.107902	1402.713976	-398.049253	459.268378	1454.635060	-256.512016	406.650985	1307.544855	-260.976298	501.418979	1117.999292	93.445479	685.983770	938.237604	-43.373506	482.068309	1113.127526	-584.010724	687.445794	926.073183	-479.840890	-112.242588	1200.434566	-243.537884	30.520276	1271.037328	-393.671081	67.649539	1239.496741	-105.748027	64.747424	1191.038292	-378.826370	84.611308	1194.172020	-127.536515	-82.135582	1238.298025	-192.407060	-81.713874	1255.348695	-298.840799	26.213112	1122.684425	-62.972720	-20.445224	1106.032296	-423.390191	170.591786	1065.140965	-72.768692	254.713631	1044.891136	-88.439284	320.304896	989.990958	-89.223127	267.388143	1074.541912	-107.357729	420.121621	899.819498	-128.028855	401.871370	882.137744	-233.340477	327.108536	797.709818	-96.171588	284.355633	720.632625	-103.910090	210.837356	674.097985	-93.745649	296.286925	708.161108	-141.911536	115.883133	580.337309	-81.912267	70.925588	620.240281	-116.408760	154.217529	346.136136	-129.743994	95.383361	404.538526	-58.525621	41.201090	992.945485	-433.096204	106.613838	933.712553	-437.575359	137.538098	953.549551	-434.035431	134.648166	849.520721	-430.115619	228.143086	703.296554	-400.172123	219.306221	684.434247	-308.174804	198.979866	559.405523	-423.475850	209.469114	476.433567	-402.960604	157.896970	377.331693	-388.591031	210.959563	479.862552	-360.609340	152.209537	255.623427	-402.441110	91.370406	203.531344	-368.322211	378.347483	244.236615	-365.699962	305.451598	200.242467	-430.635094	-262.911684	968.299990	-239.560429	-83.420172	78.977231	-437.925399	-83.521881	79.242555	-40.262862	
1502	7.5100	497.546795	1401.061608	-116.185445	482.272011	1402.099696	-395.672717	459.545106	1455.900436	-254.999893	405.755829	1309.213170	-258.611754	500.203729	1117.982135	93.255850	686.545550	939.062269	-41.785764	482.490742	1113.211923	-583.920639	688.225073	926.417962	-480.091816	-111.342693	1200.813763	-246.534224	33.611258	1269.078529	-397.080471	66.499992	1242.187395	-107.396798	67.213491	1189.120623	-380.675049	84.631238	1196.483840	-129.348888	-81.573912	1239.001922	-196.062774	-80.029840	1254.860837	-302.933936	26.984535	1125.641479	-64.190305	-18.713972	1104.053832	-424.617065	172.084866	1070.742093	-74.031957	256.640745	1052.128454	-89.401657	323.309071	998.413338	-90.050953	268.509471	1082.375808	-107.439731	425.014620	909.873615	-129.171554	407.230886	891.980163	-233.314927	332.725259	807.058912	-97.150215	290.012993	730.247957	-104.979952	216.735951	683.181941	-94.590198	301.895709	717.255283	-143.168223	122.007981	588.960489	-82.521096	70.346606	628.146411	-116.597689	162.915730	355.132914	-130.090457	103.448643	412.794865	-58.895564	39.841407	989.722911	-434.490853	103.444128	928.582699	-438.969243	134.800349	947.323380	-435.118553	128.943905	843.764530	-431.362578	218.979447	696.424863	-401.177196	210.078476	677.297048	-309.906261	190.141585	552.805116	-424.092343	200.968636	469.856243	-403.649142	155.182049	375.073382	-394.599950	203.452530	473.245092	-361.267864	144.265124	248.848256	-401.658294	83.758304	197.241171	-367.836899	371.011243	236.237310	-365.566437	297.802757	192.878040	-430.522410	-262.868972	968.355181	-239.784579	-83.424995	78.994401	-437.941786	-83.493378	79.310479	-40.281246	
1503	7.5150	495.175732	1403.735478	-113.253575	484.478014	1401.344051	-393.260301	459.697408	1456.835079	-253.382390	405.458914	1310.298382	-256.232289	497.749697	1118.464893	93.118574	687.111823	940.054918	-40.165993	482.927541	1113.290116	-583.987024	688.967111	926.751600	-480.413101	-110.134133	1200.883594	-249.924768	36.652982	1267.063365	-400.291500	65.142092	1245.014224	-109.136614	69.564014	1187.025683	-382.038216	84.604118	1198.595912	-131.140967	-81.041988	1239.959305	-199.418855	-78.557432	1254.433437	-306.694337	27.551676	1128.703307	-65.513981	-17.021819	1102.420506	-425.839509	173.539536	1076.403407	-75.258104	258.572522	1059.288132	-90.766865	325.931765	1006.524260	-91.470039	269.678877	1089.539238	-109.113198	429.233454	919.631197	-129.841086	411.943740	901.405815	-234.297709	338.219486	816.321090	-98.000875	295.590746	739.411521	-105.889800	222.441202	692.281135	-95.363654	307.691681	726.599246	-143.787337	127.910421	597.136089	-83.210206	70.109465	635.229212	-116.831788	172.363787	364.110879	-130.557157	112.247977	420.787911	-59.248901	38.476535	987.012920	-435.805288	100.351188	924.195089	-440.552684	132.243295	942.078954	-436.556055	123.556408	838.641592	-432.852181	210.545397	690.327228	-402.132640	201.801573	671.089050	-310.923927	181.334274	546.813313	-424.688208	192.461205	463.962306	-404.205760	151.777119	372.915717	-399.877041	195.503341	467.453005	-361.933082	136.283932	242.690563	-400.908947	75.754419	191.932860	-367.550949	363.370182	228.502947	-365.537851	289.710264	185.739138	-430.345621	-262.895256	968.333467	-239.972220	-83.417329	78.975389	-437.941760	-83.527930	79.374353	-40.301791	
